<svg width="108" height="32" viewBox="0 0 108 32" fill="none" xmlns="http://www.w3.org/2000/svg">
<path d="M13.2 2.66376H18.36L30.68 30.9838H23.64L21.2 24.9838H10.2L7.84 30.9838H0.96L13.2 2.66376ZM15.6 10.9038L12.16 19.7038H19.08L15.6 10.9038ZM32.8484 0.743763H38.8484V30.9838H32.8484V0.743763ZM43.2391 11.5438H49.2391V30.9838H43.2391V11.5438ZM42.7591 5.42376C42.7591 4.46376 43.0924 3.65043 43.7591 2.98376C44.4524 2.29043 45.2791 1.94376 46.2391 1.94376C47.1991 1.94376 48.0124 2.29043 48.6791 2.98376C49.3724 3.65043 49.7191 4.46376 49.7191 5.42376C49.7191 6.38376 49.3724 7.21043 48.6791 7.90376C48.0124 8.57043 47.1991 8.90376 46.2391 8.90376C45.2791 8.90376 44.4524 8.57043 43.7591 7.90376C43.0924 7.21043 42.7591 6.38376 42.7591 5.42376ZM51.5097 11.5438H57.9897L62.9097 24.7438H62.9897L67.5497 11.5438H73.5897L65.9097 30.9838H59.5497L51.5097 11.5438ZM75.8563 11.5438H81.8563V30.9838H75.8563V11.5438ZM75.3763 5.42376C75.3763 4.46376 75.7096 3.65043 76.3763 2.98376C77.0696 2.29043 77.8963 1.94376 78.8563 1.94376C79.8163 1.94376 80.6296 2.29043 81.2963 2.98376C81.9896 3.65043 82.3363 4.46376 82.3363 5.42376C82.3363 6.38376 81.9896 7.21043 81.2963 7.90376C80.6296 8.57043 79.8163 8.90376 78.8563 8.90376C77.8963 8.90376 77.0696 8.57043 76.3763 7.90376C75.7096 7.21043 75.3763 6.38376 75.3763 5.42376ZM85.4469 21.2638C85.4469 19.7171 85.7269 18.3171 86.2869 17.0638C86.8469 15.8104 87.6069 14.7438 88.5669 13.8638C89.5535 12.9571 90.7002 12.2638 92.0069 11.7838C93.3402 11.3038 94.7535 11.0638 96.2469 11.0638C97.7402 11.0638 99.1402 11.3038 100.447 11.7838C101.78 12.2638 102.927 12.9571 103.887 13.8638C104.874 14.7438 105.647 15.8104 106.207 17.0638C106.767 18.3171 107.047 19.7171 107.047 21.2638C107.047 22.8104 106.767 24.2104 106.207 25.4638C105.647 26.7171 104.874 27.7971 103.887 28.7038C102.927 29.5838 101.78 30.2638 100.447 30.7438C99.1402 31.2238 97.7402 31.4638 96.2469 31.4638C94.7535 31.4638 93.3402 31.2238 92.0069 30.7438C90.7002 30.2638 89.5535 29.5838 88.5669 28.7038C87.6069 27.7971 86.8469 26.7171 86.2869 25.4638C85.7269 24.2104 85.4469 22.8104 85.4469 21.2638ZM91.4469 21.2638C91.4469 22.7304 91.8602 23.9171 92.6869 24.8238C93.5402 25.7304 94.7269 26.1838 96.2469 26.1838C97.7669 26.1838 98.9402 25.7304 99.7669 24.8238C100.62 23.9171 101.047 22.7304 101.047 21.2638C101.047 19.7971 100.62 18.6104 99.7669 17.7038C98.9402 16.7971 97.7669 16.3438 96.2469 16.3438C94.7269 16.3438 93.5402 16.7971 92.6869 17.7038C91.8602 18.6104 91.4469 19.7971 91.4469 21.2638Z" fill="white"/>
</svg>
