<svg width="80" height="24" viewBox="0 0 80 24" fill="none" xmlns="http://www.w3.org/2000/svg">
<path d="M9.18 1.45808H13.05L22.29 22.9647H17.01L15.18 18.4082H6.93L5.16 22.9647H0L9.18 1.45808ZM10.98 7.71564L8.4 14.3985H13.59L10.98 7.71564Z" fill="#01996D"/>
<path d="M23.9163 0H28.4163V22.9647H23.9163V0Z" fill="#01996D"/>
<path d="M31.7093 8.20167H36.2093V22.9647H31.7093V8.20167ZM31.3493 3.55406C31.3493 2.82502 31.5993 2.20736 32.0993 1.70109C32.6193 1.17456 33.2393 0.911297 33.9593 0.911297C34.6793 0.911297 35.2893 1.17456 35.7893 1.70109C36.3093 2.20736 36.5693 2.82502 36.5693 3.55406C36.5693 4.28309 36.3093 4.91088 35.7893 5.4374C35.2893 5.94368 34.6793 6.19682 33.9593 6.19682C33.2393 6.19682 32.6193 5.94368 32.0993 5.4374C31.5993 4.91088 31.3493 4.28309 31.3493 3.55406Z" fill="#01996D"/>
<path d="M37.9123 8.20167H42.7723L46.4623 18.2259H46.5223L49.9423 8.20167H54.4723L48.7123 22.9647H43.9423L37.9123 8.20167Z" fill="#01996D"/>
<path d="M56.1722 8.20167H60.6722V22.9647H56.1722V8.20167ZM55.8122 3.55406C55.8122 2.82502 56.0622 2.20736 56.5622 1.70109C57.0822 1.17456 57.7022 0.911297 58.4222 0.911297C59.1422 0.911297 59.7522 1.17456 60.2522 1.70109C60.7722 2.20736 61.0322 2.82502 61.0322 3.55406C61.0322 4.28309 60.7722 4.91088 60.2522 5.4374C59.7522 5.94368 59.1422 6.19682 58.4222 6.19682C57.7022 6.19682 57.0822 5.94368 56.5622 5.4374C56.0622 4.91088 55.8122 4.28309 55.8122 3.55406Z" fill="#01996D"/>
<path d="M63.3652 15.5832C63.3652 14.4086 63.5752 13.3454 63.9952 12.3936C64.4152 11.4418 64.9852 10.6318 65.7052 9.96351C66.4452 9.27497 67.3052 8.74845 68.2852 8.38393C69.2852 8.01941 70.3452 7.83715 71.4652 7.83715C72.5852 7.83715 73.6352 8.01941 74.6152 8.38393C75.6152 8.74845 76.4752 9.27497 77.1952 9.96351C77.9352 10.6318 78.5152 11.4418 78.9352 12.3936C79.3552 13.3454 79.5652 14.4086 79.5652 15.5832C79.5652 16.7577 79.3552 17.8209 78.9352 18.7727C78.5152 19.7245 77.9352 20.5447 77.1952 21.2332C76.4752 21.9015 75.6152 22.4179 74.6152 22.7824C73.6352 23.1469 72.5852 23.3292 71.4652 23.3292C70.3452 23.3292 69.2852 23.1469 68.2852 22.7824C67.3052 22.4179 66.4452 21.9015 65.7052 21.2332C64.9852 20.5447 64.4152 19.7245 63.9952 18.7727C63.5752 17.8209 63.3652 16.7577 63.3652 15.5832ZM67.8652 15.5832C67.8652 16.697 68.1752 17.5981 68.7952 18.2867C69.4352 18.9752 70.3252 19.3195 71.4652 19.3195C72.6052 19.3195 73.4852 18.9752 74.1052 18.2867C74.7452 17.5981 75.0652 16.697 75.0652 15.5832C75.0652 14.4694 74.7452 13.5682 74.1052 12.8797C73.4852 12.1911 72.6052 11.8469 71.4652 11.8469C70.3252 11.8469 69.4352 12.1911 68.7952 12.8797C68.1752 13.5682 67.8652 14.4694 67.8652 15.5832Z" fill="#01996D"/>
</svg>
